# xmcd
#
# Track frame offsets: 
#        150
#        26537
#        41972
#        54920
#        71040
#        84822
#        100905
#        118642
#        134310
#        146100
#        167477
#        185885
#        199587
#        212770
#        229170
#        245167
#        265255
#        279282
#        290552
#        307732
#
# Disc length: 4292 seconds
#
# Revision: 5
# Processed by: cddbd v1.5.2PL0 Copyright (c) Steve Scherf et al.
# Submitted via: ExactAudioCopy v1.3
#
DISCID=2810c214
DTITLE=Furry Lewis - Back on my feet again
DYEAR=1961
DGENRE=Blues
TTITLE0=John Henry
TTITLE1=When My Baby Left Me
TTITLE2=Shake 'Em On Down
TTITLE3=Big Chief Blues
TTITLE4=Old Blue
TTITLE5=I'm Going To Brownsville
TTITLE6=Back On My Feet Again
TTITLE7=White Lightnin'
TTITLE8=Roberta
TTITLE9=St Louis Blues
TTITLE10=Baby You Don't Want Me
TTITLE11=Done Changed My Mind
TTITLE12=Goin' To Kansas City
TTITLE13=Judge Boushay Blues
TTITLE14=Casey Jones
TTITLE15=This Time Tomorrow
TTITLE16=I Will Turn Your Money Green
TTITLE17=Frankie and Johnnie
TTITLE18=Longing Blues
TTITLE19=Long Tall Gal Blues
EXTD=Furry Lewis - vocals and guitar\nSelections #1-10 recorded April 
EXTD=3 and 4, 1961, and originally released as "Back On My Feet Again"
EXTD=(Prestige/Bluesville 1036) - #11-20 recorded May 1961, and origin
EXTD=ally released as "Done Changed My Mind" (Prestige/Bluesville 1037
EXTD=).\nDigital remastering, 1992 - Phil De Lancie (Fantasy Studios, 
EXTD=Berkeley)
EXTT0=
EXTT1=
EXTT2=
EXTT3=
EXTT4=
EXTT5=
EXTT6=
EXTT7=
EXTT8=
EXTT9=
EXTT10=
EXTT11=
EXTT12=
EXTT13=
EXTT14=
EXTT15=
EXTT16=
EXTT17=
EXTT18=
EXTT19=
PLAYORDER=
